<?xml version="1.0" encoding="UTF-8"?>
<svg width="48px" height="48px" viewBox="0 0 48 48" version="1.1" xmlns="http://www.w3.org/2000/svg" xmlns:xlink="http://www.w3.org/1999/xlink">
    <!-- Generator: Sketch 63.1 (92452) - https://sketch.com -->
    <title>logo_tm</title>
    <desc>Created with Sketch.</desc>
    <g id="Icons" stroke="none" stroke-width="1" fill="none" fill-rule="evenodd">
        <g id="其他icon" transform="translate(-48.000000, -463.000000)">
            <g id="Toolbar" transform="translate(48.000000, 184.000000)">
                <g id="编组-7" transform="translate(0.000000, 279.000000)">
                    <rect id="矩形" x="0" y="0" width="48" height="48"></rect>
                    <path d="M38.2124978,10.3134478 C41.1615235,14.840175 35.263472,38.040924 29.8626104,40.1938429 C24.4617488,42.3467617 6.265323,25.3080392 7.02297426,19.6360406 C7.78062553,13.964042 35.263472,5.78672062 38.2124978,10.3134478 Z M21.7423032,18.3984165 L14.6169051,18.3984165 C14.3575189,18.3984165 14.227826,18.5234777 14.227826,18.7736 L14.227826,19.7462979 C14.227826,19.959365 14.3575189,20.0658986 14.6169051,20.0658986 L17.1999584,20.0658986 L17.1999584,27.8057947 C17.1999584,28.0837084 17.3250196,28.2226652 17.5751419,28.2226652 L18.756275,28.2226652 C19.0156612,28.2226652 19.1453542,28.0837084 19.1453542,27.8057947 L19.1453542,20.0658986 L21.7423032,20.0658986 C22.0016893,20.0658986 22.1313823,19.959365 22.1313823,19.7462979 L22.1313823,18.7736 C22.1313823,18.5234777 22.0016893,18.3984165 21.7423032,18.3984165 Z M25.0093329,18.3428338 L24.5924624,18.3428338 C24.0551625,18.3428338 23.6938747,18.4678949 23.508599,18.7180172 C23.3233233,18.9681396 23.2306853,19.3108998 23.2306853,19.7462979 L23.2306853,27.8057947 C23.2306853,28.0837084 23.3418508,28.2226652 23.5641817,28.2226652 L24.7453149,28.2226652 C24.9954372,28.2226652 25.1204984,28.0883402 25.1204984,27.8196904 L25.1200815,26.6363339 C25.1175803,23.229668 25.1038236,21.1136332 25.0788113,20.2882296 C25.356725,21.1034431 26.014454,22.909882 27.0519985,25.7075464 C27.1539001,25.9854601 27.2673816,26.1823157 27.3924427,26.298113 C27.5175039,26.4139103 27.6911999,26.471809 27.9135309,26.471809 L28.1358618,26.471809 C28.3674566,26.471809 28.5388367,26.4139103 28.6500021,26.298113 C28.7611676,26.1823157 28.8769649,25.9669326 28.9973943,25.6519636 C29.9515646,23.132213 30.5907661,21.3443016 30.9149987,20.2882296 C30.8779434,21.5110498 30.8594159,24.0076411 30.8594159,27.7780033 C30.8594159,28.0744445 30.9798453,28.2226652 31.2207037,28.2226652 L32.3879412,28.2226652 C32.6473274,28.2226652 32.7770203,28.0698127 32.7770203,27.7641076 L32.7770203,19.7462979 C32.7770203,19.2460532 32.7075419,18.8870815 32.5685851,18.6693824 C32.4296282,18.4516832 32.1007636,18.3428338 31.5819915,18.3428338 L31.1095382,18.3428338 C30.8501521,18.3428338 30.639401,18.3636773 30.4772846,18.4053644 C30.3151682,18.4470514 30.1762114,18.5396894 30.0604141,18.683278 C29.9446168,18.8268667 29.8566107,18.9611917 29.7963961,19.0862529 C29.7361815,19.211314 29.6458596,19.435961 29.5254302,19.7601936 L28.038592,23.831629 C27.825525,23.1646362 27.3206483,21.8167548 26.5239625,19.7879849 C26.2645763,19.1395196 26.0630889,18.7365448 25.9195002,18.5790604 C25.7759115,18.4215761 25.4725223,18.3428338 25.0093329,18.3428338 Z" id="形状结合" fill="#008AFF"></path>
                </g>
            </g>
        </g>
    </g>
</svg>